# This file uses centimeters as units for non-parametric coordinates.

mtllib house_base_02.mtl
g default
v -0.847789 -0.501467 0.501467
v 0.847789 -0.501467 0.501467
v -0.847789 0.496310 0.501467
v 0.847789 0.496310 0.501467
v -0.847789 0.496310 -0.501467
v 0.847789 0.496310 -0.501467
v -0.847789 -0.501467 -0.501467
v 0.847789 -0.501467 -0.501467
v 0.847789 0.501468 0.501467
v -0.847789 0.501468 0.501467
v 0.847789 0.501468 -0.501467
v -0.847789 0.501468 -0.501467
v -0.847789 0.497978 0.000000
v -0.847789 -0.501467 0.000000
v 0.847789 -0.501467 0.000000
v 0.847789 0.497978 -0.000000
v -0.847789 1.624608 0.501467
v 0.847789 1.624608 0.501467
v -0.847789 1.624608 -0.501467
v 0.847789 1.624608 -0.501467
v -0.847789 1.619444 0.505202
v -0.847789 2.010178 0.000000
v 0.847789 1.619444 0.505202
v 0.847789 2.010178 -0.000000
v -0.847789 1.619444 -0.505202
v 0.847789 1.619444 -0.505202
vt 0.470014 0.311565
vt 0.747468 0.312093
vt 0.310094 0.470548
vt 0.497227 0.311987
vt 0.470014 0.311565
vt 0.470014 0.469161
vt 0.310094 0.311565
vt 0.310094 0.469161
vt 0.310094 0.311565
vt 0.747634 0.312201
vt 0.497061 0.312093
vt 0.470014 0.469161
vt 0.747468 0.468704
vt 0.497061 0.468704
vt 0.496894 0.468597
vt 0.747301 0.468810
vt 0.390054 0.468959
vt 0.390054 0.311565
vt 0.390054 0.311565
vt 0.390054 0.470392
vt 0.497668 0.347935
vt 0.746431 0.347935
vt 0.746431 0.469438
vt 0.497668 0.469438
vt 0.496675 0.347567
vt 0.747049 0.347567
vt 0.747049 0.470192
vt 0.496675 0.470192
vt 0.389442 0.348359
vt 0.467752 0.348178
vt 0.468335 0.469669
vt 0.389442 0.527425
vt 0.309810 0.347993
vt 0.399994 0.348040
vt 0.390353 0.527054
vt 0.309810 0.471779
vt 0.311132 0.348178
vt 0.310549 0.469669
vt 0.389808 0.522138
vt 0.469644 0.469448
vt 0.389808 0.349273
vt 0.470033 0.347646
vn 0.000000 0.000000 1.000000
vn 0.000000 0.000000 1.000000
vn 0.000000 0.000000 1.000000
vn 0.000000 0.000000 1.000000
vn 0.000000 0.000000 -1.000000
vn 0.000000 0.000000 -1.000000
vn 0.000000 0.000000 -1.000000
vn 0.000000 0.000000 -1.000000
vn 1.000000 -0.000000 0.000000
vn 1.000000 -0.000000 0.000000
vn 1.000000 -0.000000 0.000000
vn 1.000000 -0.000000 0.000000
vn -1.000000 0.000000 0.000000
vn -1.000000 0.000000 0.000000
vn -1.000000 0.000000 0.000000
vn -1.000000 0.000000 0.000000
vn 1.000000 0.000000 0.000000
vn 1.000000 0.000000 0.000000
vn -1.000000 0.000000 0.000000
vn -1.000000 0.000000 0.000000
vn 0.000000 0.000000 1.000000
vn 0.000000 0.000000 1.000000
vn 0.000000 0.000000 -1.000000
vn 0.000000 0.000000 -1.000000
vn -1.000000 0.000000 0.000000
vn -1.000000 0.000000 0.000000
vn 1.000000 0.000000 0.000000
vn 1.000000 0.000000 0.000000
vn -1.000000 0.000000 0.000000
vn 1.000000 0.000000 0.000000
s 1
g house_base_02_export
usemtl standardSurface2SG
f 1/11/1 2/2/2 9/13/3 10/14/4
s 2
f 12/16/5 11/15/6 8/4/7 7/10/8
s 3
f 2/9/9 15/19/10 16/20/11 4/3/12
s 4
f 7/7/13 14/18/14 13/17/15 5/8/16
s 3
f 16/20/11 15/19/10 8/5/17 6/6/18
s 4
f 13/17/15 14/18/14 1/1/19 3/12/20
s 1
f 10/21/4 9/22/3 18/23/21 17/24/22
s 2
f 11/25/6 12/26/5 19/27/23 20/28/24
s 4
f 13/29/15 3/30/20 21/31/25 22/32/26
s 3
f 4/33/12 16/34/11 24/35/27 23/36/28
s 4
f 5/37/16 13/29/15 22/32/26 25/38/29
s 3
f 16/41/11 6/42/18 26/40/30 24/39/27
