# This file uses centimeters as units for non-parametric coordinates.

mtllib lookout_window_01.mtl
g default
v 0.027124 0.534448 0.489596
v 0.278634 0.534448 0.489596
v 0.027124 0.828615 0.489596
v 0.278634 0.828615 0.489596
v 0.027124 0.828615 0.002253
v 0.278634 0.828615 0.002253
v 0.027124 0.534448 0.002253
v 0.278634 0.534448 0.002253
v 0.152879 0.928311 0.489596
v 0.152879 0.928311 0.002253
vt 0.638516 0.016320
vt 0.680076 0.016320
vt 0.680076 0.073015
vt 0.638516 0.073015
vt 0.638516 0.016320
vt 0.680076 0.016320
vt 0.680076 0.073015
vt 0.638516 0.073015
vt 0.659296 0.092229
vt 0.659296 0.092229
vt 0.451451 0.128296
vt 0.536932 0.128292
vt 0.536934 0.160951
vt 0.451454 0.160955
vt 0.536939 0.228891
vt 0.451458 0.228896
vt 0.451456 0.196441
vt 0.536936 0.196436
vt 0.536935 0.178254
vt 0.451455 0.178259
vn 0.000000 0.000000 1.000000
vn 0.000000 0.000000 1.000000
vn 0.000000 0.000000 1.000000
vn 0.000000 0.000000 1.000000
vn 0.000000 -1.000000 0.000000
vn 0.000000 -1.000000 0.000000
vn 0.000000 -1.000000 0.000000
vn 0.000000 -1.000000 0.000000
vn 1.000000 0.000000 0.000000
vn 1.000000 0.000000 0.000000
vn 0.952621 0.304159 0.000000
vn 0.952621 0.304159 0.000000
vn -1.000000 0.000000 0.000000
vn -1.000000 0.000000 0.000000
vn -0.952621 0.304159 0.000000
vn -0.952621 0.304159 0.000000
vn 0.000000 0.000000 1.000000
vn 0.621239 0.783621 0.000000
vn 0.621239 0.783621 0.000000
vn 0.000000 0.000000 -1.000000
vn 0.000000 0.000000 -1.000000
vn 0.000000 0.000000 -1.000000
vn -0.621239 0.783621 0.000000
vn -0.621239 0.783621 0.000000
s 1
g lookout_window_01_export
usemtl standardSurface2SG
f 1/1/1 2/2/2 4/3/3 3/4/4
s off
f 7/5/5 8/6/6 2/2/7 1/1/8
s 2
f 2/11/9 8/12/10 6/13/11 4/14/12
s 3
f 7/15/13 1/16/14 3/17/15 5/18/16
s 1
f 3/4/4 4/3/3 9/9/17
s 2
f 4/14/12 6/13/11 10/19/18 9/20/19
s off
f 6/7/20 5/8/21 10/10/22
s 3
f 5/18/16 3/17/15 9/20/23 10/19/24
