# This file uses centimeters as units for non-parametric coordinates.

mtllib lookout_window_03.mtl
g default
v 0.073561 -0.178043 0.625278
v 0.382992 -0.178043 0.625278
v 0.073561 0.113308 0.625278
v 0.382992 0.113308 0.625278
v 0.073561 0.113308 0.465813
v 0.382992 0.113308 0.465813
v 0.073561 -0.178043 0.465813
v 0.382992 -0.178043 0.465813
v 0.032467 0.118853 0.691751
v 0.424086 0.118853 0.691751
v 0.424086 0.118853 0.465813
v 0.032467 0.118853 0.465813
v 0.032467 0.444139 0.561661
v 0.424086 0.444139 0.561661
v 0.424086 0.444139 0.465813
v 0.032467 0.444139 0.465813
vt 0.736608 0.020081
vt 0.774311 0.020081
vt 0.774311 0.048876
vt 0.736608 0.048876
vt 0.733733 0.091628
vt 0.776209 0.091628
vt 0.776209 0.091628
vt 0.733733 0.091628
vt 0.736608 0.020081
vt 0.774311 0.020081
vt 0.774311 0.048876
vt 0.736608 0.048876
vt 0.776209 0.049514
vt 0.733733 0.049514
vt 0.776209 0.049514
vt 0.733733 0.049514
vn 0.000000 0.000000 1.000000
vn 0.000000 0.000000 1.000000
vn 0.000000 -0.321405 0.946942
vn 0.000000 -0.321405 0.946942
vn 0.000000 1.000000 0.000000
vn 0.000000 1.000000 0.000000
vn 0.000000 1.000000 0.000000
vn 0.000000 1.000000 0.000000
vn 0.000000 -1.000000 0.000000
vn 0.000000 -1.000000 0.000000
vn 0.000000 -1.000000 0.000000
vn 0.000000 -1.000000 0.000000
vn 1.000000 0.000000 0.000000
vn 1.000000 0.000000 0.000000
vn 0.986402 -0.164348 0.000000
vn 0.965393 -0.260801 0.000000
vn -1.000000 0.000000 0.000000
vn -1.000000 0.000000 0.000000
vn -0.965393 -0.260800 0.000000
vn -0.986403 -0.164348 0.000000
vn 0.000000 -0.996539 0.083130
vn 0.000000 -0.996539 0.083130
vn 0.133723 -0.991019 0.000000
vn 0.133723 -0.991019 0.000000
vn 0.000000 0.000000 -1.000000
vn 0.000000 0.000000 -1.000000
vn 0.000000 0.000000 -1.000000
vn 0.000000 0.000000 -1.000000
vn -0.133723 -0.991019 0.000000
vn -0.133723 -0.991019 0.000000
vn 0.000000 0.371331 0.928501
vn 0.000000 0.371331 0.928501
vn 0.000000 0.371331 0.928501
vn 0.000000 0.371331 0.928501
vn 1.000000 0.000000 0.000000
vn 1.000000 0.000000 0.000000
vn 1.000000 0.000000 0.000000
vn 1.000000 0.000000 0.000000
vn 0.000000 0.000000 -1.000000
vn 0.000000 0.000000 -1.000000
vn -1.000000 0.000000 0.000000
vn -1.000000 0.000000 0.000000
vn -1.000000 0.000000 0.000000
vn -1.000000 0.000000 0.000000
s 1
g lookout_window_03_export
usemtl standardSurface2SG
f 1/1/1 2/2/2 4/3/3 3/4/4
s off
f 13/5/5 14/6/6 15/7/7 16/8/8
f 7/9/9 8/10/10 2/2/11 1/1/12
s 2
f 2/2/13 8/10/14 6/11/15 4/3/16
s 3
f 7/9/17 1/1/18 3/4/19 5/12/20
s 1
f 3/4/4 4/3/3 10/13/21 9/14/22
s 2
f 4/3/16 6/11/15 11/15/23 10/13/24
s 4
f 6/11/25 5/12/26 12/16/27 11/15/28
s 3
f 5/12/20 3/4/19 9/14/29 12/16/30
s off
f 9/14/31 10/13/32 14/6/33 13/5/34
f 10/13/35 11/15/36 15/7/37 14/6/38
s 4
f 11/15/28 12/16/27 16/8/39 15/7/40
s off
f 12/16/41 9/14/42 13/5/43 16/8/44
