# This file uses centimeters as units for non-parametric coordinates.

mtllib roof_long_03.mtl
g default
v -0.455677 0.401179 0.537133
v 0.455677 0.401179 0.537133
v -0.455677 0.457938 0.589394
v 0.455677 0.457938 0.589394
v -0.455677 0.457938 -0.589394
v 0.455677 0.457938 -0.589394
v -0.455677 0.401179 -0.537133
v 0.455677 0.401179 -0.537133
v -0.455677 0.935523 0.000000
v -0.455677 0.855428 0.000000
v 0.455677 0.855428 0.000000
v 0.455677 0.935523 0.000000
vt 0.703015 0.260624
vt 0.480163 0.096669
vt 0.568342 0.096244
vt 0.432709 0.278884
vt 0.568285 0.096626
vt 0.479918 0.011815
vt 0.528377 0.354793
vt 0.479872 0.089196
vt 0.528377 0.460156
vt 0.694679 0.460156
vt 0.703015 0.260624
vt 0.703015 0.278884
vt 0.432709 0.260624
vt 0.432709 0.278884
vt 0.432709 0.278884
vt 0.568330 0.011769
vt 0.703015 0.260624
vt 0.528377 0.460156
vt 0.694679 0.460156
vt 0.432709 0.260624
vt 0.479929 0.096290
vt 0.432709 0.278884
vt 0.703015 0.278884
vt 0.479918 0.011815
vt 0.703015 0.278884
vt 0.568342 0.096244
vt 0.694679 0.354793
vt 0.703015 0.260624
vt 0.432709 0.260624
vt 0.528377 0.354793
vt 0.479873 0.096671
vt 0.432709 0.260624
vt 0.568575 0.096623
vt 0.568330 0.011769
vt 0.694679 0.354793
vt 0.568284 0.089150
vt 0.480161 0.089193
vt 0.479929 0.096290
vt 0.568574 0.089148
vt 0.703015 0.278884
vn 0.000000 -0.677352 0.735659
vn 0.000000 -0.677352 0.735659
vn 0.000000 -0.677352 0.735659
vn 0.000000 -0.677352 0.735659
vn 0.000000 0.776950 0.629562
vn 0.000000 0.776950 0.629562
vn 0.000000 1.000000 0.000000
vn 0.000000 1.000000 0.000000
vn 0.000000 -0.677352 -0.735659
vn 0.000000 -0.677352 -0.735659
vn 0.000000 -0.677352 -0.735659
vn 0.000000 -0.677352 -0.735659
vn 0.000000 -1.000000 0.000000
vn 0.000000 -1.000000 0.000000
vn 0.000000 -0.763561 -0.645736
vn 0.000000 -0.763561 -0.645736
vn 1.000000 0.000000 0.000000
vn 1.000000 0.000000 0.000000
vn 1.000000 0.000000 0.000000
vn 1.000000 0.000000 0.000000
vn -1.000000 0.000000 0.000000
vn -1.000000 0.000000 0.000000
vn -1.000000 0.000000 0.000000
vn -1.000000 0.000000 0.000000
vn -1.000000 0.000000 0.000000
vn -1.000000 0.000000 0.000000
vn 0.000000 -0.763561 0.645736
vn 0.000000 -0.763561 0.645736
vn 1.000000 0.000000 0.000000
vn 1.000000 0.000000 0.000000
vn 0.000000 0.776950 -0.629562
vn 0.000000 0.776950 -0.629562
s off
g roof_long_03_export
usemtl standardSurface2SG
f 1/33/1 2/2/2 4/37/3 3/39/4
s 1
f 3/3/5 4/38/6 12/24/7 9/16/8
s off
f 5/5/9 6/31/10 8/8/11 7/36/12
s 2
f 10/30/13 11/27/14 2/10/15 1/9/16
s 3
f 2/32/17 11/28/18 12/23/19 4/4/20
s 4
f 9/15/21 10/29/22 1/1/23 3/40/24
f 7/13/25 10/17/22 9/25/21 5/14/26
s 2
f 7/7/27 8/35/28 11/19/14 10/18/13
s 3
f 12/22/19 11/20/18 8/11/29 6/12/30
s 1
f 9/26/8 12/21/7 6/6/31 5/34/32
