# This file uses centimeters as units for non-parametric coordinates.

mtllib S_Grass_03.mtl
g default
v -0.256845 0.501467 0.501467
v -0.256845 0.501467 -0.501467
v -0.256845 -0.501467 -0.501467
v -0.256845 -0.501467 0.501467
v 0.008341 0.501467 0.501467
v 0.008341 0.501467 -0.501467
v 0.008341 -0.501467 -0.501467
v 0.008341 -0.501467 0.501467
v 0.233815 0.501467 0.501467
v 0.233815 0.501467 -0.501467
v 0.233815 -0.501467 -0.501467
v 0.233815 -0.501467 0.501467
vt 0.112149 0.885967
vt 0.014526 0.788212
vt 0.112215 0.788278
vt 0.014460 0.885901
vt 0.017950 0.777708
vt 0.018016 0.680019
vt 0.115705 0.680085
vt 0.115639 0.777774
vt 0.123235 0.777708
vt 0.123301 0.680019
vt 0.220990 0.680085
vt 0.220924 0.777774
vn 1.000000 0.000000 0.000000
vn 1.000000 0.000000 0.000000
vn 1.000000 0.000000 0.000000
vn 1.000000 0.000000 0.000000
vn 1.000000 0.000000 0.000000
vn 1.000000 0.000000 0.000000
vn 1.000000 0.000000 0.000000
vn 1.000000 0.000000 0.000000
vn 1.000000 0.000000 0.000000
vn 1.000000 0.000000 0.000000
vn 1.000000 0.000000 0.000000
vn 1.000000 0.000000 0.000000
s off
g S_Grass_03_export
usemtl standardSurface2SG
f 1/4/1 4/2/2 3/3/3 2/1/4
f 5/5/5 8/6/6 7/7/7 6/8/8
f 9/9/9 12/10/10 11/11/11 10/12/12
