# This file uses centimeters as units for non-parametric coordinates.

mtllib S_Plants_09.mtl
g default
v 0.008341 0.501467 0.501467
v 0.008341 0.501467 -0.501467
v 0.008341 -0.501467 -0.501467
v 0.008341 -0.501467 0.501467
vt 0.226363 0.605198
vt 0.226400 0.549198
vt 0.282400 0.549236
vt 0.282363 0.605236
vn 1.000000 0.000000 0.000000
vn 1.000000 0.000000 0.000000
vn 1.000000 0.000000 0.000000
vn 1.000000 0.000000 0.000000
s off
g S_Plants_09_export
usemtl standardSurface2SG
f 1/1/1 4/2/2 3/3/3 2/4/4
