# This file uses centimeters as units for non-parametric coordinates.

mtllib S_Plants_04.mtl
g default
v 0.008341 0.501467 0.501467
v 0.008341 0.501467 -0.501467
v 0.008341 -0.501467 -0.501467
v 0.008341 -0.501467 0.501467
vt 0.198584 0.668899
vt 0.198625 0.607174
vt 0.260351 0.607216
vt 0.260309 0.668941
vn 1.000000 0.000000 0.000000
vn 1.000000 0.000000 0.000000
vn 1.000000 0.000000 0.000000
vn 1.000000 0.000000 0.000000
s off
g S_Plants_04_export
usemtl standardSurface2SG
f 1/1/1 4/2/2 3/3/3 2/4/4
