# This file uses centimeters as units for non-parametric coordinates.

mtllib S_Plants_10.mtl
g default
v 0.008341 0.501467 0.501467
v 0.008341 0.501467 -0.501467
v 0.008341 -0.501467 -0.501467
v 0.008341 -0.501467 0.501467
vt 0.289351 0.608187
vt 0.289389 0.552187
vt 0.345389 0.552225
vt 0.345351 0.608225
vn 1.000000 0.000000 0.000000
vn 1.000000 0.000000 0.000000
vn 1.000000 0.000000 0.000000
vn 1.000000 0.000000 0.000000
s off
g S_Plants_10_export
usemtl standardSurface2SG
f 1/1/1 4/2/2 3/3/3 2/4/4
