# This file uses centimeters as units for non-parametric coordinates.

mtllib S_Vine_03.mtl
g default
v 0.005736 0.780942 0.476045
v 0.005737 0.780942 -0.476045
v 0.005737 -0.254606 -0.476044
v 0.005736 -0.254606 0.476044
vt 0.209444 0.483701
vt 0.209488 0.393049
vt 0.274638 0.393111
vt 0.274594 0.483762
vn 1.000000 0.000000 0.000000
vn 1.000000 0.000000 0.000000
vn 1.000000 0.000000 0.000000
vn 1.000000 0.000000 0.000000
s off
g S_Vine_03_export
usemtl standardSurface2SG
f 1/1/1 4/2/2 3/3/3 2/4/4
