# This file uses centimeters as units for non-parametric coordinates.

mtllib S_Vine_02.mtl
g default
v 0.005736 1.933669 0.476045
v 0.005737 1.933669 -0.476045
v 0.005737 -0.630424 -0.476044
v 0.005736 -0.630424 0.476044
vt 0.108367 0.536113
vt 0.108411 0.302074
vt 0.173561 0.302232
vt 0.173517 0.536271
vn 1.000000 0.000000 0.000000
vn 1.000000 0.000000 0.000000
vn 1.000000 0.000000 0.000000
vn 1.000000 0.000000 0.000000
s off
g S_Vine_02_export
usemtl standardSurface2SG
f 1/1/1 4/2/2 3/3/3 2/4/4
