# This file uses centimeters as units for non-parametric coordinates.

mtllib SC_GrassPathway_01.mtl
g default
v -0.501467 0.501467 0.501467
v 0.501467 0.501467 0.501467
v -0.501467 0.501467 -0.501467
v 0.501467 0.501467 -0.501467
v -0.501467 -0.501467 -0.501467
v 0.501467 -0.501467 -0.501467
v -0.501467 -0.501467 0.501467
v 0.501467 -0.501467 0.501467
vt 0.223783 0.890309
vt 0.668413 0.880230
vt 0.125385 0.891083
vt 0.334935 0.884804
vt 0.892295 0.781139
vt 0.223030 0.988728
vt 0.333507 0.988677
vt 0.991129 0.880651
vt 0.333493 0.891120
vt 0.235937 0.891135
vt 0.237311 0.787049
vt 0.335000 0.787115
vt 0.124610 0.890330
vt 0.124631 0.989503
vt 0.235951 0.988691
vt 0.237245 0.884738
vt 0.891957 0.880312
vt 0.767563 0.880115
vt 0.991468 0.781479
vt 0.125385 0.988728
vt 0.668298 0.781079
vt 0.223030 0.891083
vt 0.767449 0.780964
vt 0.223804 0.989482
vn 0.000000 1.000000 -0.000000
vn 0.000000 1.000000 -0.000000
vn 0.000000 1.000000 -0.000000
vn 0.000000 1.000000 -0.000000
vn 0.000000 -0.000000 -1.000000
vn 0.000000 -0.000000 -1.000000
vn 0.000000 -0.000000 -1.000000
vn 0.000000 -0.000000 -1.000000
vn 0.000000 -1.000000 0.000000
vn 0.000000 -1.000000 0.000000
vn 0.000000 -1.000000 0.000000
vn 0.000000 -1.000000 0.000000
vn 0.000000 0.000000 1.000000
vn 0.000000 0.000000 1.000000
vn 0.000000 0.000000 1.000000
vn 0.000000 0.000000 1.000000
vn 1.000000 0.000000 0.000000
vn 1.000000 0.000000 0.000000
vn 1.000000 0.000000 0.000000
vn 1.000000 0.000000 0.000000
vn -1.000000 0.000000 0.000000
vn -1.000000 0.000000 0.000000
vn -1.000000 0.000000 0.000000
vn -1.000000 0.000000 0.000000
s off
g SC_GrassPathway_01_export
usemtl standardSurface2SG
f 1/18/1 2/2/2 4/21/3 3/23/4
f 3/3/5 4/22/6 6/6/7 5/20/8
f 5/5/9 6/19/10 8/8/11 7/17/12
f 7/7/13 8/15/14 2/10/15 1/9/16
f 2/16/17 8/11/18 6/12/19 4/4/20
f 7/13/21 1/1/22 3/24/23 5/14/24
