# This file uses centimeters as units for non-parametric coordinates.

mtllib Grass_03.mtl
g default
v -50.037319 -50.037319 50.037319
v -50.037319 50.037319 50.037319
v -50.037319 50.037319 -50.037319
v 50.037319 50.037319 -50.037319
v -50.037319 -50.037319 -50.037319
v 50.037319 -50.037319 -50.037319
v 50.037319 -50.037319 0.005004
v 0.005004 -50.037319 50.037319
v 50.037319 50.037319 0.005004
v 0.005004 50.037319 50.037319
vt 0.878779 0.889688
vt 0.878714 0.988490
vt 0.780109 0.889623
vt 0.780043 0.889688
vt 0.780043 0.988424
vt 0.878845 0.889754
vt 0.779978 0.988358
vt 0.878779 0.988424
vt 0.892488 0.891833
vt 0.988358 0.891833
vt 0.988358 0.939773
vt 0.940428 0.987703
vt 0.892488 0.987703
vt 0.126209 0.894290
vt 0.172176 0.894290
vt 0.218134 0.940248
vt 0.218134 0.986215
vt 0.126209 0.986215
vt 0.780043 0.889688
vt 0.829416 0.889688
vt 0.780043 0.988424
vt 0.829406 0.988424
vt 0.829406 0.889688
vt 0.878779 0.889688
vt 0.878779 0.988424
vt 0.878779 0.889688
vt 0.878779 0.988424
vt 0.829416 0.988424
vn 0.000000 0.000000 1.000000
vn 0.000000 0.000000 1.000000
vn 0.000000 0.000000 1.000000
vn 0.000000 0.000000 1.000000
vn 0.000000 1.000000 0.000000
vn 0.000000 1.000000 0.000000
vn 0.000000 1.000000 0.000000
vn 0.000000 1.000000 0.000000
vn 0.000000 1.000000 0.000000
vn 0.000000 0.000000 -1.000000
vn 0.000000 0.000000 -1.000000
vn 0.000000 0.000000 -1.000000
vn 0.000000 0.000000 -1.000000
vn 0.000000 -1.000000 0.000000
vn 0.000000 -1.000000 0.000000
vn 0.000000 -1.000000 0.000000
vn 0.000000 -1.000000 0.000000
vn 0.000000 -1.000000 0.000000
vn 1.000000 0.000000 0.000000
vn 1.000000 0.000000 0.000000
vn 1.000000 0.000000 0.000000
vn 1.000000 0.000000 0.000000
vn -1.000000 0.000000 0.000000
vn -1.000000 0.000000 0.000000
vn -1.000000 0.000000 0.000000
vn -1.000000 0.000000 0.000000
vn 0.707107 0.000000 0.707107
vn 0.707107 0.000000 0.707107
vn 0.707107 0.000000 0.707107
vn 0.707107 0.000000 0.707107
s off
g Grass_03_export
usemtl standardSurface2SG
f 1/19/1 8/20/2 10/28/3 2/21/4
f 2/14/5 10/15/6 9/16/7 4/17/8 3/18/9
f 3/2/10 4/7/11 6/3/12 5/6/13
f 5/9/14 6/10/15 7/11/16 8/12/17 1/13/18
f 9/22/19 7/23/20 6/24/21 4/25/22
f 5/4/23 1/1/24 2/8/25 3/5/26
f 8/20/27 7/26/28 9/27/29 10/28/30
