# This file uses centimeters as units for non-parametric coordinates.

mtllib Pathway_01.mtl
g default
v -50.037319 -50.037319 50.037319
v 50.037319 -50.037319 50.037319
v -50.037319 50.037319 50.037319
v 50.037319 50.037319 50.037319
v -50.037319 50.037319 -50.037319
v 50.037319 50.037319 -50.037319
v -50.037319 -50.037319 -50.037319
v 50.037319 -50.037319 -50.037319
vt 0.118903 0.890309
vt 0.118914 0.890319
vt 0.019741 0.890319
vt 0.019700 0.989452
vt 0.118905 0.989501
vt 0.118914 0.989492
vt 0.118914 0.890319
vt 0.019749 0.890310
vt 0.019741 0.890319
vt 0.019741 0.989492
vt 0.118954 0.890360
vt 0.118873 0.989533
vt 0.019730 0.890330
vt 0.019751 0.989503
vt 0.118914 0.989492
vt 0.019781 0.890279
vt 0.118922 0.890328
vt 0.019741 0.890319
vt 0.019732 0.989483
vt 0.019741 0.989492
vt 0.118914 0.989492
vt 0.118914 0.890319
vt 0.019741 0.989492
vt 0.118924 0.989482
vn 0.000000 0.000000 1.000000
vn 0.000000 0.000000 1.000000
vn 0.000000 0.000000 1.000000
vn 0.000000 0.000000 1.000000
vn 0.000000 1.000000 0.000000
vn 0.000000 1.000000 0.000000
vn 0.000000 1.000000 0.000000
vn 0.000000 1.000000 0.000000
vn 0.000000 0.000000 -1.000000
vn 0.000000 0.000000 -1.000000
vn 0.000000 0.000000 -1.000000
vn 0.000000 0.000000 -1.000000
vn 0.000000 -1.000000 0.000000
vn 0.000000 -1.000000 0.000000
vn 0.000000 -1.000000 0.000000
vn 0.000000 -1.000000 0.000000
vn 1.000000 0.000000 0.000000
vn 1.000000 0.000000 0.000000
vn 1.000000 0.000000 0.000000
vn 1.000000 0.000000 0.000000
vn -1.000000 0.000000 0.000000
vn -1.000000 0.000000 0.000000
vn -1.000000 0.000000 0.000000
vn -1.000000 0.000000 0.000000
s off
g Pathway_01_export
usemtl standardSurface2SG
f 1/18/1 2/2/2 4/21/3 3/23/4
f 3/3/5 4/22/6 6/6/7 5/20/8
f 5/5/9 6/19/10 8/8/11 7/17/12
f 7/7/13 8/15/14 2/10/15 1/9/16
f 2/16/17 8/11/18 6/12/19 4/4/20
f 7/13/21 1/1/22 3/24/23 5/14/24
