# This file uses centimeters as units for non-parametric coordinates.

mtllib SC_PathwayGrass_01.mtl
g default
v -50.037315 50.037323 50.037315
v 50.037315 50.037308 50.037315
v -50.037319 50.037315 -50.037323
v 50.037319 50.037315 -50.037323
v -50.037319 -50.037323 -50.037315
v 50.037319 -50.037323 -50.037315
v -50.037315 -50.037315 50.037323
v 50.037315 -50.037315 50.037308
vt 0.119072 0.890309
vt 0.453970 0.881039
vt 0.020674 0.891083
vt 0.237278 0.787082
vt 0.892295 0.781139
vt 0.118319 0.988728
vt 0.235934 0.891137
vt 0.991129 0.880651
vt 0.235954 0.988694
vt 0.333510 0.988674
vt 0.334968 0.884771
vt 0.237278 0.884771
vt 0.019899 0.890330
vt 0.019920 0.989503
vt 0.333490 0.891118
vt 0.334968 0.787082
vt 0.891957 0.880312
vt 0.553121 0.881032
vt 0.991468 0.781479
vt 0.020674 0.988728
vt 0.453963 0.781888
vt 0.118319 0.891083
vt 0.553114 0.781881
vt 0.119093 0.989482
vn 0.000000 1.000000 0.000000
vn 0.000000 1.000000 0.000000
vn 0.000000 1.000000 0.000000
vn 0.000000 1.000000 0.000000
vn 0.000000 -0.000000 -1.000000
vn 0.000000 -0.000000 -1.000000
vn 0.000000 -0.000000 -1.000000
vn 0.000000 -0.000000 -1.000000
vn 0.000000 -1.000000 0.000000
vn 0.000000 -1.000000 0.000000
vn 0.000000 -1.000000 0.000000
vn 0.000000 -1.000000 0.000000
vn 0.000000 0.000000 1.000000
vn 0.000000 0.000000 1.000000
vn 0.000000 0.000000 1.000000
vn 0.000000 0.000000 1.000000
vn 1.000000 0.000000 0.000000
vn 1.000000 0.000000 0.000000
vn 1.000000 0.000000 0.000000
vn 1.000000 0.000000 0.000000
vn -1.000000 0.000000 0.000000
vn -1.000000 0.000000 0.000000
vn -1.000000 0.000000 0.000000
vn -1.000000 0.000000 0.000000
s off
g SC_PathwayGrass_01_export
usemtl standardSurface2SG
f 1/18/1 2/2/2 4/21/3 3/23/4
f 3/3/5 4/22/6 6/6/7 5/20/8
f 5/5/9 6/19/10 8/8/11 7/17/12
f 7/7/13 8/15/14 2/10/15 1/9/16
f 2/16/17 8/11/18 6/12/19 4/4/20
f 7/13/21 1/1/22 3/24/23 5/14/24
