# This file uses centimeters as units for non-parametric coordinates.

mtllib SideGrassPathway_01.mtl
g default
v -50.037315 50.037323 50.037315
v 50.037315 50.037308 50.037315
v -50.037319 50.037315 -50.037323
v 50.037319 50.037315 -50.037323
v -50.037319 -50.037323 -50.037315
v 50.037319 -50.037323 -50.037315
v -50.037315 -50.037315 50.037323
v 50.037315 -50.037315 50.037308
vt 0.118903 0.890309
vt 0.335068 0.680731
vt 0.236063 0.891357
vt 0.125297 0.989383
vt 0.236137 0.786345
vt 0.333708 0.989002
vt 0.235577 0.891498
vt 0.334971 0.885856
vt 0.236314 0.989051
vt 0.333868 0.988314
vt 0.223067 0.891773
vt 0.222987 0.989463
vt 0.019730 0.890330
vt 0.019751 0.989503
vt 0.333130 0.890760
vt 0.125377 0.891693
vt 0.235798 0.885517
vt 0.235895 0.680731
vt 0.335309 0.786684
vt 0.236063 0.989002
vt 0.335068 0.779904
vt 0.333708 0.891357
vt 0.235895 0.779904
vt 0.118924 0.989482
vn 0.000000 1.000000 0.000000
vn 0.000000 1.000000 0.000000
vn 0.000000 1.000000 0.000000
vn 0.000000 1.000000 0.000000
vn 0.000000 -0.000000 -1.000000
vn 0.000000 -0.000000 -1.000000
vn 0.000000 -0.000000 -1.000000
vn 0.000000 -0.000000 -1.000000
vn 0.000000 -1.000000 0.000000
vn 0.000000 -1.000000 0.000000
vn 0.000000 -1.000000 0.000000
vn 0.000000 -1.000000 0.000000
vn 0.000000 0.000000 1.000000
vn 0.000000 0.000000 1.000000
vn 0.000000 0.000000 1.000000
vn 0.000000 0.000000 1.000000
vn 1.000000 0.000000 0.000000
vn 1.000000 0.000000 0.000000
vn 1.000000 0.000000 0.000000
vn 1.000000 0.000000 0.000000
vn -1.000000 0.000000 0.000000
vn -1.000000 0.000000 0.000000
vn -1.000000 0.000000 0.000000
vn -1.000000 0.000000 0.000000
s off
g SideGrassPathway_01_export
usemtl standardSurface2SG
f 1/18/1 2/2/2 4/21/3 3/23/4
f 3/3/5 4/22/6 6/6/7 5/20/8
f 5/5/9 6/19/10 8/8/11 7/17/12
f 7/7/13 8/15/14 2/10/15 1/9/16
f 2/16/17 8/11/18 6/12/19 4/4/20
f 7/13/21 1/1/22 3/24/23 5/14/24
