# This file uses centimeters as units for non-parametric coordinates.

mtllib door_01.mtl
g default
v -21.428124 -36.819329 10.248510
v 9.447426 -36.819329 10.248510
v -21.428124 32.753748 10.248510
v 9.447426 32.753748 10.248510
v -21.428124 32.753748 3.857454
v 9.447426 32.753748 3.857454
v -21.428124 -36.819329 3.857454
v 9.447426 -36.819329 3.857454
vt 0.969143 0.480467
vt 0.997043 0.480467
vt 0.997043 0.545275
vt 0.969143 0.545275
vt 0.997043 0.545275
vt 0.969143 0.545275
vt 0.969143 0.480467
vt 0.997043 0.480467
vn 0.000000 0.000000 1.000000
vn 0.000000 0.000000 1.000000
vn 0.000000 0.000000 1.000000
vn 0.000000 0.000000 1.000000
vn 0.000000 1.000000 0.000000
vn 0.000000 1.000000 0.000000
vn 0.000000 1.000000 0.000000
vn 0.000000 1.000000 0.000000
vn 0.000000 -1.000000 0.000000
vn 0.000000 -1.000000 0.000000
vn 0.000000 -1.000000 0.000000
vn 0.000000 -1.000000 0.000000
vn 1.000000 0.000000 0.000000
vn 1.000000 0.000000 0.000000
vn 1.000000 0.000000 0.000000
vn 1.000000 0.000000 0.000000
vn -1.000000 0.000000 0.000000
vn -1.000000 0.000000 0.000000
vn -1.000000 0.000000 0.000000
vn -1.000000 0.000000 0.000000
s off
g door_01_export
usemtl standardSurface2SG
f 1/1/1 2/2/2 4/3/3 3/4/4
f 3/4/5 4/3/6 6/5/7 5/6/8
f 7/7/9 8/8/10 2/2/11 1/1/12
f 2/2/13 8/8/14 6/5/15 4/3/16
f 7/7/17 1/1/18 3/4/19 5/6/20
