# This file uses centimeters as units for non-parametric coordinates.

mtllib house_base_05.mtl
g default
v -185.606479 349.866756 174.341087
v 185.606479 349.866756 174.341087
v -185.606479 360.641955 184.984229
v 185.606479 360.641955 184.984229
v -185.606479 360.641955 -55.088503
v 185.606479 360.641955 -55.088503
v -185.606479 349.866756 -44.445345
v 185.606479 349.866756 -44.445345
v -185.606479 451.300664 64.947848
v -185.606479 436.096448 64.947848
v 185.606479 436.096448 64.947848
v 185.606479 451.300664 64.947848
v -168.378468 -57.580795 165.668171
v 168.378468 -57.580795 165.668171
v -168.378468 140.586798 165.668171
v 168.378468 140.586798 165.668171
v -168.378468 140.586798 -33.523614
v 168.378468 140.586798 -33.523614
v -168.378468 -57.580795 -33.523614
v 168.378468 -57.580795 -33.523614
v 168.378468 141.611156 165.668171
v -168.378468 141.611156 165.668171
v 168.378468 141.611156 -33.523614
v -168.378468 141.611156 -33.523614
v -168.378468 140.917999 66.072275
v -168.378468 -57.580795 66.072275
v 168.378468 -57.580795 66.072275
v 168.378468 140.917999 66.072275
v -168.378468 364.676766 165.668171
v 168.378468 364.676766 165.668171
v -168.378468 364.676766 -33.523614
v 168.378468 364.676766 -33.523614
v -168.378468 363.651148 166.410004
v -168.378468 441.254520 66.072275
v 168.378468 363.651148 166.410004
v 168.378468 441.254520 66.072275
v -168.378468 363.651148 -34.265437
v 168.378468 363.651148 -34.265437
vt 0.703015 0.260624
vt 0.698162 0.113423
vt 0.436697 0.114004
vt 0.432709 0.278884
vt 0.437115 0.113423
vt 0.698603 0.242932
vt 0.528377 0.354793
vt 0.699021 0.124833
vt 0.528377 0.460156
vt 0.694679 0.460156
vt 0.703015 0.260624
vt 0.703015 0.278884
vt 0.432709 0.260624
vt 0.432709 0.278884
vt 0.432709 0.278884
vt 0.436697 0.242932
vt 0.703015 0.260624
vt 0.528377 0.460156
vt 0.694679 0.460156
vt 0.432709 0.260624
vt 0.698603 0.114004
vt 0.432709 0.278884
vt 0.703015 0.278884
vt 0.698603 0.242932
vt 0.703015 0.278884
vt 0.436697 0.114004
vt 0.694679 0.354793
vt 0.703015 0.260624
vt 0.432709 0.260624
vt 0.528377 0.354793
vt 0.699021 0.113423
vt 0.432709 0.260624
vt 0.436257 0.113423
vt 0.436697 0.242932
vt 0.694679 0.354793
vt 0.437115 0.124833
vt 0.698162 0.124833
vt 0.698603 0.114004
vt 0.436257 0.124833
vt 0.703015 0.278884
vt 0.497061 0.312093
vt 0.747468 0.312093
vt 0.747468 0.468704
vt 0.497061 0.468704
vt 0.747301 0.468810
vt 0.496894 0.468597
vt 0.497227 0.311987
vt 0.747634 0.312201
vt 0.310094 0.311565
vt 0.390054 0.311565
vt 0.390054 0.470392
vt 0.310094 0.470548
vt 0.310094 0.311565
vt 0.390054 0.311565
vt 0.390054 0.468959
vt 0.310094 0.469161
vt 0.470014 0.311565
vt 0.470014 0.469161
vt 0.470014 0.311565
vt 0.470014 0.469161
vt 0.497668 0.347935
vt 0.746431 0.347935
vt 0.746431 0.469438
vt 0.497668 0.469438
vt 0.496675 0.347567
vt 0.747049 0.347567
vt 0.747049 0.470192
vt 0.496675 0.470192
vt 0.389442 0.348359
vt 0.467752 0.348178
vt 0.468335 0.469669
vt 0.389442 0.527425
vt 0.309810 0.347993
vt 0.399994 0.348040
vt 0.390353 0.527054
vt 0.309810 0.471779
vt 0.311132 0.348178
vt 0.310549 0.469669
vt 0.389808 0.349273
vt 0.470033 0.347646
vt 0.469644 0.469448
vt 0.389808 0.522138
vn 0.000000 -0.702734 0.711453
vn 0.000000 -0.702734 0.711453
vn 0.000000 -0.702734 0.711453
vn 0.000000 -0.702734 0.711453
vn 0.000000 0.797981 0.602683
vn 0.000000 0.797981 0.602683
vn 0.000000 1.000000 0.000000
vn 0.000000 1.000000 0.000000
vn 0.000000 -0.702734 -0.711452
vn 0.000000 -0.702734 -0.711452
vn 0.000000 -0.702734 -0.711452
vn 0.000000 -0.702734 -0.711452
vn 0.000000 -1.000000 0.000000
vn 0.000000 -1.000000 0.000000
vn 0.000000 -0.785348 -0.619054
vn 0.000000 -0.785348 -0.619054
vn 1.000000 0.000000 0.000000
vn 1.000000 -0.000000 0.000000
vn 1.000000 -0.000000 0.000000
vn 1.000000 0.000000 0.000000
vn -1.000000 -0.000000 0.000000
vn -1.000000 -0.000000 0.000000
vn -1.000000 0.000000 0.000000
vn -1.000000 0.000000 0.000000
vn -1.000000 -0.000001 0.000000
vn -1.000000 -0.000001 0.000000
vn 0.000000 -0.785348 0.619054
vn 0.000000 -0.785348 0.619054
vn 1.000000 -0.000001 0.000000
vn 1.000000 -0.000001 0.000000
vn 0.000000 0.797981 -0.602683
vn 0.000000 0.797981 -0.602683
vn 0.000000 0.000000 1.000000
vn 0.000000 0.000000 1.000000
vn 0.000000 0.000000 1.000000
vn 0.000000 0.000000 1.000000
vn 0.000000 0.000000 -1.000000
vn 0.000000 0.000000 -1.000000
vn 0.000000 0.000000 -1.000000
vn 0.000000 0.000000 -1.000000
vn 1.000000 0.000000 0.000000
vn 1.000000 0.000000 0.000000
vn 1.000000 0.000000 0.000000
vn 1.000000 0.000000 0.000000
vn -1.000000 0.000000 0.000000
vn -1.000000 0.000000 0.000000
vn -1.000000 0.000000 0.000000
vn -1.000000 -0.000000 0.000000
vn 1.000000 0.000000 0.000000
vn 1.000000 0.000000 0.000000
vn -1.000000 0.000000 0.000000
vn -1.000000 0.000000 0.000000
vn 0.000000 0.000000 1.000000
vn 0.000000 0.000000 1.000000
vn 0.000000 0.000000 -1.000000
vn 0.000000 0.000000 -1.000000
vn -1.000000 0.000000 0.000000
vn -1.000000 0.000000 0.000000
vn 1.000000 0.000000 0.000000
vn 1.000000 0.000000 0.000000
vn -1.000000 -0.000000 0.000000
vn 1.000000 0.000000 0.000000
s off
g house_base_05_export
usemtl standardSurface2SG
f 1/33/1 2/2/2 4/37/3 3/39/4
s 1
f 3/3/5 4/38/6 12/24/7 9/16/8
s off
f 5/5/9 6/31/10 8/8/11 7/36/12
s 2
f 10/30/13 11/27/14 2/10/15 1/9/16
s 3
f 2/32/17 11/28/18 12/23/19 4/4/20
s 4
f 9/15/21 10/29/22 1/1/23 3/40/24
f 7/13/25 10/17/22 9/25/21 5/14/26
s 2
f 7/7/27 8/35/28 11/19/14 10/18/13
s 3
f 12/22/19 11/20/18 8/11/29 6/12/30
s 1
f 9/26/8 12/21/7 6/6/31 5/34/32
s 5
f 13/41/33 14/42/34 21/43/35 22/44/36
s 6
f 24/45/37 23/46/38 20/47/39 19/48/40
s 7
f 14/49/41 27/50/42 28/51/43 16/52/44
s 8
f 19/53/45 26/54/46 25/55/47 17/56/48
s 7
f 28/51/43 27/50/42 20/57/49 18/58/50
s 8
f 25/55/47 26/54/46 13/59/51 15/60/52
s 5
f 22/61/36 21/62/35 30/63/53 29/64/54
s 6
f 23/65/38 24/66/37 31/67/55 32/68/56
s 8
f 25/69/47 15/70/52 33/71/57 34/72/58
s 7
f 16/73/44 28/74/43 36/75/59 35/76/60
s 8
f 17/77/48 25/69/47 34/72/58 37/78/61
s 7
f 28/79/43 18/80/50 38/81/62 36/82/59
