# This file uses centimeters as units for non-parametric coordinates.

mtllib window_01.mtl
g default
v -17.325066 -33.148757 10.248510
v 23.446808 -33.148757 10.248510
v -17.325066 36.424323 10.248510
v 23.446808 36.424323 10.248510
v -17.325066 36.424323 3.857454
v 23.446808 36.424323 3.857454
v -17.325066 -33.148757 3.857454
v 23.446808 -33.148757 3.857454
vt 0.797616 0.019587
vt 0.838353 0.019587
vt 0.838353 0.086436
vt 0.797616 0.086436
vt 0.838353 0.086436
vt 0.797616 0.086436
vt 0.797616 0.019587
vt 0.838353 0.019587
vn 0.000000 0.000000 1.000000
vn 0.000000 0.000000 1.000000
vn 0.000000 0.000000 1.000000
vn 0.000000 0.000000 1.000000
vn 0.000000 1.000000 0.000000
vn 0.000000 1.000000 0.000000
vn 0.000000 1.000000 0.000000
vn 0.000000 1.000000 0.000000
vn 0.000000 -1.000000 0.000000
vn 0.000000 -1.000000 0.000000
vn 0.000000 -1.000000 0.000000
vn 0.000000 -1.000000 0.000000
vn 1.000000 0.000000 0.000000
vn 1.000000 0.000000 0.000000
vn 1.000000 0.000000 0.000000
vn 1.000000 0.000000 0.000000
vn -1.000000 0.000000 0.000000
vn -1.000000 0.000000 0.000000
vn -1.000000 0.000000 0.000000
vn -1.000000 0.000000 0.000000
s off
g window_01_export
usemtl standardSurface2SG
f 1/1/1 2/2/2 4/3/3 3/4/4
f 3/4/5 4/3/6 6/5/7 5/6/8
f 7/7/9 8/8/10 2/2/11 1/1/12
f 2/2/13 8/8/14 6/5/15 4/3/16
f 7/7/17 1/1/18 3/4/19 5/6/20
